<svg width="40" height="40" viewBox="0 0 40 40" xmlns="http://www.w3.org/2000/svg">
<path d="M25.3332 25.9999C25.3332 25.6319 25.0346 25.3333 24.6666 25.3333C24.2986 25.3333 23.9999 25.6319 23.9999 25.9999V27.3333C23.9999 27.7012 24.2986 27.9999 24.6666 27.9999C25.0346 27.9999 25.3332 27.7012 25.3332 27.3333V25.9999Z"/>
<path d="M24.6665 33.3334C24.2985 33.3334 23.9998 33.632 23.9998 34V36.6667C23.9998 37.0346 24.2985 37.3333 24.6665 37.3333C25.0345 37.3333 25.3331 37.0346 25.3331 36.6667V34C25.3332 33.632 25.0345 33.3334 24.6665 33.3334Z"/>
<path d="M28 17.9999C28 17.6319 27.7014 17.3333 27.3334 17.3333C26.9654 17.3333 26.6668 17.6319 26.6668 17.9999V19.3333C26.6668 19.7012 26.9654 19.9999 27.3334 19.9999C27.7014 19.9999 28 19.7012 28 19.3333V17.9999Z"/>
<path d="M25.3332 22.0001C25.3332 21.6322 25.0346 21.3335 24.6666 21.3335C24.2986 21.3335 23.9999 21.6322 23.9999 22.0001V23.3335C23.9999 23.7015 24.2986 24.0001 24.6666 24.0001C25.0346 24.0001 25.3332 23.7015 25.3332 23.3335V22.0001Z"/>
<path d="M25.3332 30.0001C25.3332 29.6322 25.0345 29.3335 24.6666 29.3335C24.2986 29.3335 23.9998 29.6322 23.9998 30.0001V31.3335C23.9998 31.7015 24.2985 32.0001 24.6665 32.0001C25.0345 32.0001 25.3331 31.7015 25.3331 31.3335V30.0001H25.3332Z"/>
<path d="M28 22.0001C28 21.6322 27.7014 21.3335 27.3334 21.3335C26.9654 21.3335 26.6668 21.6322 26.6668 22.0001V23.3335C26.6668 23.7015 26.9654 24.0001 27.3334 24.0001C27.7014 24.0001 28 23.7015 28 23.3335V22.0001Z"/>
<path d="M22.6663 17.9999C22.6663 17.6319 22.3677 17.3333 21.9997 17.3333C21.6317 17.3333 21.333 17.6319 21.333 17.9999V19.3333C21.333 19.7012 21.6317 19.9999 21.9997 19.9999C22.3677 19.9999 22.6663 19.7012 22.6663 19.3333V17.9999Z"/>
<path d="M25.3332 17.9999C25.3332 17.6319 25.0346 17.3333 24.6666 17.3333C24.2986 17.3333 23.9999 17.6319 23.9999 17.9999V19.3333C23.9999 19.7012 24.2986 19.9999 24.6666 19.9999C25.0346 19.9999 25.3332 19.7012 25.3332 19.3333V17.9999Z"/>
<path d="M28 11.3335V10.0001C28 9.63217 27.7014 9.3335 27.3334 9.3335C26.9654 9.3335 26.6668 9.63217 26.6668 10.0001V11.3335C26.6668 11.7015 26.9654 12.0001 27.3334 12.0001C27.7014 12.0001 28 11.7015 28 11.3335Z"/>
<path d="M22.6663 22.0001C22.6663 21.6322 22.3677 21.3335 21.9997 21.3335C21.6317 21.3335 21.333 21.6322 21.333 22.0001V23.3335C21.333 23.7015 21.6317 24.0001 21.9997 24.0001C22.3677 24.0001 22.6663 23.7015 22.6663 23.3335V22.0001Z"/>
<path d="M30.6668 10.0001C30.6668 9.63217 30.3681 9.3335 30.0002 9.3335C29.6322 9.3335 29.3335 9.63217 29.3335 10.0001V11.3335C29.3335 11.7015 29.6322 12.0001 30.0002 12.0001C30.3681 12.0001 30.6668 11.7015 30.6668 11.3335V10.0001Z"/>
<path d="M21.9997 25.3333C21.6317 25.3333 21.333 25.6319 21.333 25.9999V27.3333C21.333 27.7012 21.6317 27.9999 21.9997 27.9999C22.3677 27.9999 22.6663 27.7012 22.6663 27.3333V25.9999C22.6663 25.6319 22.3677 25.3333 21.9997 25.3333Z"/>
<path d="M33.3337 30.0001C33.3337 29.6322 33.035 29.3335 32.667 29.3335C32.2991 29.3335 32.0003 29.6322 32.0003 30.0001V31.3335C32.0003 31.7015 32.299 32.0001 32.667 32.0001C33.0349 32.0001 33.3336 31.7015 33.3336 31.3335V30.0001H33.3337Z"/>
<path d="M32.667 33.3334C32.299 33.3334 32.0003 33.632 32.0003 34V36.6667C32.0003 37.0346 32.299 37.3333 32.667 37.3333C33.0349 37.3333 33.3336 37.0346 33.3336 36.6667V34C33.3337 33.632 33.035 33.3334 32.667 33.3334Z"/>
<path d="M35.3331 25.3333C34.9651 25.3333 34.6664 25.6319 34.6664 25.9999V27.3333C34.6664 27.7012 34.9651 27.9999 35.3331 27.9999C35.701 27.9999 35.9997 27.7012 35.9997 27.3333V25.9999C35.9997 25.6319 35.701 25.3333 35.3331 25.3333Z"/>
<path d="M24.6665 11.9999C25.0345 11.9999 25.3331 11.7012 25.3331 11.3332V8.52058L31.9998 6.85386V17.9999C31.9998 18.2778 32.1725 18.5265 32.4325 18.6246L37.3332 20.4619V27.3332C37.3332 27.7012 37.6319 27.9999 37.9998 27.9999C38.3678 27.9999 38.6665 27.7012 38.6665 27.3332V19.9999C38.6665 19.7219 38.4938 19.4732 38.2338 19.3752L33.3331 17.5378V4.66652C33.3331 4.29855 33.0345 3.99988 32.6665 3.99988C32.2985 3.99988 31.9998 4.29855 31.9998 4.66652V5.47918L24.5045 7.35316C24.2079 7.42714 23.9998 7.69386 23.9998 7.9998V11.3332C23.9998 11.7012 24.2985 11.9999 24.6665 11.9999Z"/>
<path d="M35.9997 22.0001C35.9997 21.6322 35.701 21.3335 35.3331 21.3335C34.9651 21.3335 34.6664 21.6322 34.6664 22.0001V23.3335C34.6664 23.7015 34.9651 24.0001 35.3331 24.0001C35.701 24.0001 35.9997 23.7015 35.9997 23.3335V22.0001Z"/>
<path d="M33.3337 22.0001C33.3337 21.6322 33.0351 21.3335 32.6671 21.3335C32.2991 21.3335 32.0004 21.6322 32.0004 22.0001V23.3335C32.0004 23.7015 32.2991 24.0001 32.6671 24.0001C33.0351 24.0001 33.3337 23.7015 33.3337 23.3335V22.0001Z"/>
<path d="M28 30.0001C28 29.6322 27.7014 29.3335 27.3334 29.3335C26.9654 29.3335 26.6668 29.6322 26.6668 30.0001V31.3335C26.6668 31.7015 26.9654 32.0001 27.3334 32.0001C27.7014 32.0001 28 31.7015 28 31.3335V30.0001Z"/>
<path d="M33.3337 25.9999C33.3337 25.6319 33.0351 25.3333 32.6671 25.3333C32.2991 25.3333 32.0004 25.6319 32.0004 25.9999V27.3333C32.0004 27.7012 32.2991 27.9999 32.6671 27.9999C33.0351 27.9999 33.3337 27.7012 33.3337 27.3333V25.9999Z"/>
<path d="M27.3334 33.3334C26.9654 33.3334 26.6668 33.632 26.6668 34V36.6667C26.6668 37.0346 26.9654 37.3333 27.3334 37.3333C27.7014 37.3333 28 37.0346 28 36.6667V34C28 33.632 27.7014 33.3334 27.3334 33.3334Z"/>
<path d="M28 25.9999C28 25.6319 27.7014 25.3333 27.3334 25.3333C26.9654 25.3333 26.6668 25.6319 26.6668 25.9999V27.3333C26.6668 27.7012 26.9654 27.9999 27.3334 27.9999C27.7014 27.9999 28 27.7012 28 27.3333V25.9999Z"/>
<path d="M30.0003 37.3334C30.3683 37.3334 30.6669 37.0348 30.6669 36.6668V15.3334C30.6669 15.0274 30.4583 14.7608 30.1623 14.6868L19.4956 12.0201C19.2976 11.9701 19.0849 12.0154 18.9236 12.1414C18.7615 12.2674 18.6669 12.4614 18.6669 12.6667V27.3333C18.6669 27.7013 18.9656 28 19.3336 28C19.7015 28 20.0002 27.7013 20.0002 27.3333V13.5208L29.3336 15.8541V36.6668C29.3337 37.0348 29.6323 37.3334 30.0003 37.3334Z"/>
<path d="M14.6667 14C14.6667 13.632 14.368 13.3334 14 13.3334C13.6321 13.3334 13.3334 13.632 13.3334 14V15.3334C13.3334 15.7013 13.6321 16 14 16C14.368 16 14.6667 15.7013 14.6667 15.3334V14Z"/>
<path d="M14.6667 10.0001C14.6667 9.63217 14.368 9.3335 14 9.3335C13.6321 9.3335 13.3334 9.63217 13.3334 10.0001V11.3335C13.3334 11.7015 13.6321 12.0001 14 12.0001C14.368 12.0001 14.6667 11.7015 14.6667 11.3335V10.0001Z"/>
<path d="M9.33304 30.0001C9.33304 29.6322 9.03437 29.3335 8.6664 29.3335C8.29843 29.3335 7.99968 29.6322 7.99968 30.0001V31.3335C7.99968 31.7015 8.29835 32.0001 8.66632 32.0001C9.03429 32.0001 9.33296 31.7015 9.33296 31.3335V30.0001H9.33304Z"/>
<path d="M3.3335 23.9999C3.70147 23.9999 4.00014 23.7012 4.00014 23.3333V19.9999H10.6668V36.6665C10.6668 37.0345 10.9655 37.3332 11.3334 37.3332C11.7014 37.3332 12.0001 37.0345 12.0001 36.6665V19.3333C12.0001 18.9653 11.7014 18.6666 11.3334 18.6666H3.33342C2.96545 18.6666 2.66678 18.9653 2.66678 19.3333V23.3333C2.66678 23.7012 2.96545 23.9999 3.3335 23.9999Z"/>
<path d="M10.6665 14V15.3334C10.6665 15.7013 10.9652 16 11.3331 16C11.7011 16 11.9998 15.7013 11.9998 15.3334V14C11.9998 13.632 11.7011 13.3334 11.3331 13.3334C10.9652 13.3334 10.6665 13.632 10.6665 14Z"/>
<path d="M14.6667 5.99989C14.6667 5.63192 14.368 5.33325 14 5.33325C13.6321 5.33325 13.3334 5.63192 13.3334 5.99989V7.33325C13.3334 7.70122 13.6321 7.99989 14 7.99989C14.368 7.99989 14.6667 7.70122 14.6667 7.33325V5.99989Z"/>
<path d="M8.66632 33.3334C8.29835 33.3334 7.99968 33.632 7.99968 34V36.6667C7.99968 37.0346 8.29835 37.3333 8.66632 37.3333C9.03429 37.3333 9.33296 37.0346 9.33296 36.6667V34C9.33304 33.632 9.03437 33.3334 8.66632 33.3334Z"/>
<path d="M39.3334 38.6665H38V34.5718C39.1466 34.2738 40 33.2384 40 31.9998C40 30.5291 38.804 29.3331 37.3334 29.3331C35.8627 29.3331 34.6667 30.5291 34.6667 31.9998C34.6667 33.2384 35.5201 34.2738 36.6667 34.5718V38.6665H20V35.9325C21.5193 35.6225 22.6666 34.2765 22.6666 32.6665C22.6666 30.8285 21.1713 29.3331 19.3333 29.3331C17.4953 29.3331 15.9999 30.8284 15.9999 32.6665C15.9999 34.2765 17.1473 35.6225 18.6666 35.9325V38.6665H4V31.9325C5.5193 31.6225 6.66664 30.2765 6.66664 28.6665C6.66664 26.8285 5.17133 25.3331 3.33328 25.3331C1.49531 25.3332 0 26.8285 0 28.6665C0 30.2765 1.14734 31.6225 2.66664 31.9325V38.6665H0.666641C0.298672 38.6665 0 38.9652 0 39.3331C0 39.7011 0.298672 39.9998 0.666641 39.9998H39.3333C39.7013 39.9998 39.9999 39.7012 39.9999 39.3332C39.9999 38.9652 39.7013 38.6665 39.3334 38.6665ZM1.33336 28.6665C1.33336 27.5638 2.2307 26.6665 3.33336 26.6665C4.43602 26.6665 5.33336 27.5638 5.33336 28.6665C5.33336 29.7691 4.43602 30.6665 3.33336 30.6665C2.2307 30.6665 1.33336 29.7691 1.33336 28.6665ZM17.3334 32.6665C17.3334 31.5638 18.2307 30.6665 19.3334 30.6665C20.436 30.6665 21.3334 31.5638 21.3334 32.6665C21.3334 33.7691 20.436 34.6665 19.3334 34.6665C18.2307 34.6665 17.3334 33.7691 17.3334 32.6665ZM36 31.9998C36 31.2645 36.598 30.6665 37.3334 30.6665C38.0687 30.6665 38.6667 31.2645 38.6667 31.9998C38.6667 32.7352 38.0687 33.3332 37.3334 33.3332C36.598 33.3332 36 32.7352 36 31.9998Z"/>
<path d="M5.33369 34V36.6667C5.33369 37.0346 5.63236 37.3333 6.00033 37.3333C6.3683 37.3333 6.66697 37.0346 6.66697 36.6667V34C6.66697 33.632 6.3683 33.3334 6.00033 33.3334C5.63236 33.3334 5.33369 33.632 5.33369 34Z"/>
<path d="M9.33308 22.0001C9.33308 21.6322 9.03441 21.3335 8.66644 21.3335C8.29847 21.3335 7.9998 21.6322 7.9998 22.0001V23.3335C7.9998 23.7015 8.29847 24.0001 8.66644 24.0001C9.03441 24.0001 9.33308 23.7015 9.33308 23.3335V22.0001Z"/>
<path d="M9.33308 25.9999C9.33308 25.6319 9.03441 25.3333 8.66644 25.3333C8.29847 25.3333 7.9998 25.6319 7.9998 25.9999V27.3333C7.9998 27.7012 8.29847 27.9999 8.66644 27.9999C9.03441 27.9999 9.33308 27.7012 9.33308 27.3333V25.9999Z"/>
<path d="M5.33369 22.0001V23.3335C5.33369 23.7015 5.63236 24.0001 6.00033 24.0001C6.3683 24.0001 6.66697 23.7015 6.66697 23.3335V22.0001C6.66697 21.6322 6.3683 21.3335 6.00033 21.3335C5.63236 21.3335 5.33369 21.6322 5.33369 22.0001Z"/>
<path d="M14.6667 25.9999C14.6667 25.6319 14.368 25.3333 14 25.3333C13.6321 25.3333 13.3334 25.6319 13.3334 25.9999V27.3333C13.3334 27.7012 13.6321 27.9999 14 27.9999C14.368 27.9999 14.6667 27.7012 14.6667 27.3333V25.9999Z"/>
<path d="M17.3336 17.9999C17.3336 17.6319 17.0349 17.3333 16.6669 17.3333C16.2989 17.3333 16.0003 17.6319 16.0003 17.9999V19.3333C16.0003 19.7012 16.2989 19.9999 16.6669 19.9999C17.0349 19.9999 17.3336 19.7012 17.3336 19.3333V17.9999Z"/>
<path d="M17.3336 14C17.3336 13.632 17.0349 13.3334 16.6669 13.3334C16.2989 13.3334 16.0003 13.632 16.0003 14V15.3334C16.0003 15.7013 16.2989 16 16.6669 16C17.0349 16 17.3336 15.7013 17.3336 15.3334V14Z"/>
<path d="M17.3336 22.0001C17.3336 21.6322 17.0349 21.3335 16.6669 21.3335C16.2989 21.3335 16.0003 21.6322 16.0003 22.0001V23.3335C16.0003 23.7015 16.2989 24.0001 16.6669 24.0001C17.0349 24.0001 17.3336 23.7015 17.3336 23.3335V22.0001Z"/>
<path d="M16.6668 25.3333C16.2988 25.3333 16.0002 25.6319 16.0002 25.9999V27.3333C16.0002 27.7012 16.2988 27.9999 16.6668 27.9999C17.0348 27.9999 17.3334 27.7012 17.3334 27.3333V25.9999C17.3335 25.6319 17.0348 25.3333 16.6668 25.3333Z"/>
<path d="M17.3336 10.0001C17.3336 9.63217 17.0349 9.3335 16.6669 9.3335C16.2989 9.3335 16.0003 9.63217 16.0003 10.0001V11.3335C16.0003 11.7015 16.2989 12.0001 16.6669 12.0001C17.0349 12.0001 17.3336 11.7015 17.3336 11.3335V10.0001Z"/>
<path d="M14.6667 30.0001C14.6667 29.6322 14.368 29.3335 14 29.3335C13.6321 29.3335 13.3334 29.6322 13.3334 30.0001V31.3335C13.3334 31.7015 13.6321 32.0001 14 32.0001C14.368 32.0001 14.6667 31.7015 14.6667 31.3335V30.0001Z"/>
<path d="M8.66636 17.3334C9.03433 17.3334 9.333 17.0347 9.333 16.6667V11.7453L11.631 10.5966C11.857 10.4833 11.9996 10.2527 11.9996 10V4.41203L15.333 2.74539L18.6664 4.41203V10C18.6664 10.368 18.965 10.6666 19.333 10.6666C19.701 10.6666 19.9997 10.368 19.9997 10V4C19.9997 3.74734 19.8571 3.51664 19.6311 3.40336L15.9997 1.58797V0.666641C15.9997 0.298672 15.701 0 15.3331 0C14.9651 0 14.6664 0.298672 14.6664 0.666641V1.58797L11.0351 3.40328C10.8091 3.51664 10.6664 3.74727 10.6664 3.99992V9.58789L8.36847 10.7366C8.14246 10.8499 7.9998 11.0805 7.9998 11.3332V16.6666C7.99972 17.0347 8.2984 17.3334 8.66636 17.3334Z"/>
<path d="M14.6667 22.0001C14.6667 21.6322 14.368 21.3335 14 21.3335C13.6321 21.3335 13.3334 21.6322 13.3334 22.0001V23.3335C13.3334 23.7015 13.6321 24.0001 14 24.0001C14.368 24.0001 14.6667 23.7015 14.6667 23.3335V22.0001Z"/>
<path d="M14 33.3334C13.6321 33.3334 13.3334 33.632 13.3334 34V36.6667C13.3334 37.0346 13.6321 37.3333 14 37.3333C14.368 37.3333 14.6667 37.0346 14.6667 36.6667V34C14.6667 33.632 14.368 33.3334 14 33.3334Z"/>
<path d="M17.3336 5.99989C17.3336 5.63192 17.0349 5.33325 16.6669 5.33325C16.2989 5.33325 16.0003 5.63192 16.0003 5.99989V7.33325C16.0003 7.70122 16.2989 7.99989 16.6669 7.99989C17.0349 7.99989 17.3336 7.70122 17.3336 7.33325V5.99989Z"/>
<path d="M14.6667 17.9999C14.6667 17.6319 14.368 17.3333 14 17.3333C13.6321 17.3333 13.3334 17.6319 13.3334 17.9999V19.3333C13.3334 19.7012 13.6321 19.9999 14 19.9999C14.368 19.9999 14.6667 19.7012 14.6667 19.3333V17.9999Z"/>
</svg>