<svg width="30" height="30" viewBox="0 0 30 30" fill="none" xmlns="http://www.w3.org/2000/svg">
<rect x="0.599976" y="0.599976" width="28.8" height="28.8" rx="14.4" fill="#EE3524"/>
<path d="M15 6.59998C16.2729 6.59998 16.6728 7.47713 17.0066 8.35564C17.1488 8.72847 20.4551 17.4444 20.5536 17.7061C20.5804 17.7793 20.5635 17.9 20.4452 17.942C20.3283 17.9854 18.6104 18.628 18.5161 18.6632C18.4203 18.6971 18.3133 18.647 18.2795 18.5561C18.2443 18.4653 17.5318 16.5659 17.4515 16.3517C17.215 16.3517 12.7893 16.3517 12.5527 16.3517C12.4724 16.5646 11.7529 18.4694 11.7191 18.5561C11.6853 18.6429 11.5825 18.7012 11.4825 18.6632C11.3825 18.6253 9.65618 17.98 9.55198 17.942C9.45482 17.9054 9.41117 17.7983 9.44497 17.7061C9.56606 17.3794 12.823 8.80303 12.9892 8.35564C13.3117 7.49204 13.7271 6.59998 15 6.59998ZM9.18446 22.1976C9.08308 22.1976 9 22.279 9 22.3806V24.417C9 24.5186 9.08308 24.6 9.18446 24.6H20.8155C20.9169 24.6 21 24.5186 21 24.417V22.3806C21 22.279 20.9183 22.1976 20.8155 22.1976H9.18446ZM14.9901 9.447L13.3328 14.2354H16.6728L15.0113 9.447H14.9901Z" fill="white"/>
</svg>