<svg width="29" height="32" viewBox="0 0 29 32" fill="none" xmlns="http://www.w3.org/2000/svg">
    <g clip-path="url(#clip0)">
        <path d="M26.921 5.99994H1.90861C0.92093 5.99994 0.121948 6.89456 0.121948 8.00003V23.9998C0.121948 25.1057 0.921048 26.0001 1.90861 26.0001H26.921C27.9083 26.0001 28.7073 25.1057 28.7073 23.9998V8.00003C28.7073 6.89456 27.9082 5.99994 26.921 5.99994ZM6.40299 9.99991H7.26837C7.9226 9.99991 8.46878 10.4142 8.7809 11.0001H6.40299V9.99991ZM3.6951 12C3.6951 10.8945 4.49426 9.99991 5.48176 9.99991H5.5098V16H5.48176C4.49426 16 3.6951 15.1056 3.6951 14.0001V12ZM7.26837 22H3.6951V20H7.26837V22ZM7.26837 15.9999H6.40299V14H9.05491C9.05485 15.1055 8.25587 15.9999 7.26837 15.9999ZM9.05485 13H6.40293V11.9999H9.05485V13ZM13.2247 22H9.65153V20H13.2247V22ZM19.1793 22H15.6047V20H19.1793V22ZM25.1343 22H21.561V20H25.1343V22ZM22.4546 15.9999C21.7653 15.9999 21.1423 15.699 20.6677 15.2226C20.1933 15.6991 19.5703 15.9999 18.8813 15.9999C17.4015 15.9999 16.2013 14.6561 16.2013 13C16.2013 11.3437 17.4015 9.99991 18.8813 9.99991C19.5703 9.99991 20.1933 10.3006 20.6677 10.7774C21.1423 10.3006 21.7653 9.99991 22.4546 9.99991C23.9338 9.99991 25.1342 11.3437 25.1342 13C25.1343 14.6562 23.9339 15.9999 22.4546 15.9999Z" fill="#0468FF"/>
    </g>
    <defs>
        <clipPath id="clip0">
            <rect width="28.5854" height="32" fill="white" transform="translate(0.121948)"/>
        </clipPath>
    </defs>
</svg>