<svg width="30" height="30" viewBox="0 0 30 30" fill="none" xmlns="http://www.w3.org/2000/svg">
<path d="M15 29.4C22.9529 29.4 29.4 22.9529 29.4 15C29.4 7.04708 22.9529 0.599976 15 0.599976C7.04708 0.599976 0.599976 7.04708 0.599976 15C0.599976 22.9529 7.04708 29.4 15 29.4Z" fill="white"/>
<path fill-rule="evenodd" clip-rule="evenodd" d="M27.3652 12.9896L26.8979 13.3681C25.3411 14.3835 23.601 15.1029 21.7693 15.4884C16.9001 16.7504 13.3556 17.0029 9.33042 18.0125C8.52312 18.2081 7.73295 18.4655 6.96727 18.7822C7.74768 19.1739 8.54959 19.5236 9.36939 19.8297C10.9335 19.3576 12.5303 18.995 14.1476 18.7447C15.0566 18.5929 17.8351 18.1006 19.8474 17.6719C23.4699 16.8891 28.7804 15.2106 27.3656 13.0018L27.3652 12.9896ZM25.041 8.40765C24.1474 8.01225 23.2226 7.68733 22.2755 7.43603C21.7621 7.87395 21.179 8.22773 20.549 8.48352C21.6687 8.72233 22.774 9.02151 23.8596 9.37967C24.0545 9.48043 24.9241 8.66014 25.067 8.47087L25.041 8.40765ZM7.26607 13.2796C11.9924 11.8789 16.9781 11.4498 22.0157 10.0992C20.3706 9.54127 18.6136 9.36841 16.8871 9.59464C13.773 9.95647 10.6971 10.5814 7.69436 11.4624C6.57796 11.7904 0.709278 13.4562 2.3973 15.8037C2.3973 15.8037 3.40978 14.4156 7.26607 13.2796ZM3.99396 21.3193C3.99396 21.7481 4.24079 22.1392 4.82498 22.581C4.90041 22.3513 5.01943 22.1376 5.17574 21.95C4.77319 21.7462 4.37896 21.5273 3.99396 21.2937V21.3193ZM6.26617 21.1044C6.67877 20.8601 7.11349 20.6531 7.56487 20.486C6.88933 20.2086 6.26617 19.9056 5.48711 19.5772C5.19209 19.7534 4.91759 19.9606 4.66909 20.1956C5.19844 20.5107 5.73528 20.8137 6.27916 21.1044H6.26617ZM24.4438 11.008C23.0634 11.6034 21.629 12.0723 20.1592 12.4087C18.5492 12.8126 14.6279 13.3808 10.4083 14.3018C9.10957 14.5922 5.46113 15.4505 3.68217 16.9776C4.08867 17.2852 4.52325 17.5552 4.98088 17.7853C5.97891 17.2015 7.06581 16.7755 8.20102 16.5232C10.452 15.9366 12.7369 15.4814 15.0436 15.16C18.1255 14.674 21.1642 13.9566 24.1324 13.0145C24.8696 12.7633 25.5617 12.4013 26.1838 11.9417C25.6518 11.5523 25.066 11.2382 24.4438 11.008ZM25.846 10.1498C26.2951 10.3513 26.7291 10.5833 27.1447 10.844C27.4431 10.2758 27.2612 9.90995 26.6381 9.37967C26.403 9.66725 26.1328 9.92587 25.8335 10.1498H25.846ZM3.77353 18.7569C3.41123 18.5496 3.05609 18.3307 2.70867 18.1006C2.52679 18.5171 2.87755 18.9715 3.26687 19.1987C3.42612 19.0416 3.59542 18.894 3.77353 18.7569ZM23.9506 5.60618C23.7957 5.96406 23.5657 6.28653 23.2754 6.55292C23.998 6.75489 24.7087 6.9951 25.4043 7.27246C25.3138 6.62879 24.5742 6.01041 23.9506 5.60618ZM1.64381 9.65745C6.61693 6.38894 12.1097 4.48364 21.4056 6.09893C21.649 5.98703 21.8612 5.81957 22.024 5.61079C22.1867 5.40201 22.2953 5.15807 22.3405 4.8997C19.7359 4.03749 16.9856 3.66917 14.2386 3.81468C10.4014 3.99015 6.64715 4.96259 3.2279 6.66672L4.07191 5.59394C7.48528 3.93311 11.2185 2.98737 15.0306 2.81777C17.5157 2.71171 20.0008 3.0413 22.3665 3.78939C22.0807 3.23424 21.4185 2.95646 20.4446 2.52734C17.3158 1.11397 11.4857 0.987516 6.72086 3.09514C7.34606 2.67592 8.0012 2.30065 8.68128 1.97219C11.0061 0.993568 13.5246 0.528028 16.0561 0.608984C18.8308 0.603223 21.5075 1.60707 23.5608 3.4235C23.8311 3.73517 24.0264 4.1017 24.1324 4.49628C25.2841 4.97951 26.2672 5.77717 26.9629 6.79277C27.1663 7.23594 27.234 7.72686 27.1577 8.20655C27.6349 8.48061 28.0466 8.85066 28.3651 9.29198C28.5822 9.6215 28.728 9.99071 28.7934 10.377C28.8532 10.6548 28.8505 10.9419 28.7856 11.2186C28.7206 11.4953 28.5949 11.7551 28.417 11.98C28.8839 12.2764 29.2286 12.7232 29.391 13.2421C29.4337 13.8299 29.3241 14.4188 29.0722 14.9546C28.8203 15.4905 28.4342 15.9562 27.9494 16.3091C26.3269 17.5192 24.4732 18.4031 22.4964 18.9091C18.6011 19.8933 15.1731 20.3098 12.4336 20.8148C14.2632 21.2886 16.1497 21.522 18.0429 21.5086C21.8577 21.3948 25.5978 20.4504 28.9882 18.7447C28.9882 18.7447 28.8713 19.111 28.7544 19.4263C25.0553 21.4017 20.9114 22.4554 16.6923 22.4933C14.3911 22.4101 12.1118 22.028 9.91461 21.3573C9.26882 21.5168 8.63853 21.7326 8.03214 22.0009C10.6432 23.1941 13.4728 23.8678 16.3549 23.9825C20.2005 24.0622 24.0262 23.4239 27.625 22.1021C27.4431 22.2787 27.3526 22.5688 27.1707 22.7327C24.5473 23.9125 21.7375 24.6507 18.8605 24.9162C16.5537 25.0315 14.2409 24.8919 11.9664 24.5002C10.1966 24.1351 8.47881 23.5629 6.85035 22.796C6.57749 22.9941 6.39565 23.2887 6.34411 23.6162C12.7454 26.9733 18.731 27.0491 25.5477 24.8783L24.9245 25.4714C22.1098 26.75 19.0319 27.3852 15.9263 27.3283C12.8207 27.2715 9.76958 26.5241 7.00625 25.1434C6.84846 25.0804 6.69649 25.0044 6.55197 24.9162C8.63675 26.9671 11.3926 28.2439 14.3425 28.5257C17.0099 28.7274 19.6909 28.3791 22.2106 27.5035L21.0812 28.0966C18.9395 29.1074 16.5593 29.5431 14.1866 29.3587C11.049 29.232 8.06478 28.0035 5.78591 25.9005C5.2805 25.416 4.94434 24.7892 4.82498 24.1086C3.89919 23.6675 3.12046 22.9805 2.57876 22.127C2.32256 21.6586 2.2576 21.1133 2.39688 20.6002C2.42029 20.4522 2.46399 20.3079 2.52679 20.1711C2.02085 19.8748 1.57971 19.4845 1.22851 19.0225C1.05379 18.6938 0.974718 18.3249 0.999831 17.9556C1.02494 17.5864 1.15329 17.2309 1.37099 16.9275C1.10218 16.6494 0.882924 16.3295 0.722268 15.9811C0.609642 15.6088 0.574313 15.2183 0.618339 14.8325C0.734726 14.1304 1.05957 13.4767 1.55287 12.9521C3.01346 11.5006 4.85453 10.4661 6.87634 9.96093C8.75605 9.3499 10.6728 8.85253 12.6155 8.47169C15.1454 8.0935 17.651 7.57517 20.1203 6.91922C16.8714 6.28441 13.5245 6.29248 10.2789 6.94294C7.03336 7.59339 3.95545 8.87293 1.22851 10.7054L1.64381 9.65745Z" fill="#1D5378"/>
</svg>
