<svg width="30" height="30" viewBox="0 0 30 30" fill="none" xmlns="http://www.w3.org/2000/svg">
<rect x="0.599976" y="0.599976" width="28.8" height="28.8" rx="14.4" fill="black" fill-opacity="0.1"/>
<path d="M11.1197 21.8V19.08H9.37966V17.78H11.1197V16H9.37966V14.48H11.1197V7.52005H14.8797C16.6263 7.52005 17.9197 7.87338 18.7597 8.58005C19.613 9.28671 20.0397 10.3134 20.0397 11.66C20.0397 13.02 19.5797 14.0867 18.6597 14.86C17.7397 15.62 16.3863 16 14.5997 16H12.9197V17.78H16.2197V19.08H12.9197V21.8H11.1197ZM12.9197 14.48H14.3397C15.553 14.48 16.493 14.28 17.1597 13.88C17.8397 13.48 18.1797 12.76 18.1797 11.72C18.1797 10.8134 17.8997 10.14 17.3397 9.70005C16.7797 9.26005 15.9063 9.04005 14.7197 9.04005H12.9197V14.48Z" fill="black" fill-opacity="0.87"/>
</svg>