<svg width="30" height="30" viewBox="0 0 30 30" fill="none" xmlns="http://www.w3.org/2000/svg">
<path d="M15 29.4C22.9529 29.4 29.4 22.9529 29.4 15C29.4 7.04708 22.9529 0.599976 15 0.599976C7.04708 0.599976 0.599976 7.04708 0.599976 15C0.599976 22.9529 7.04708 29.4 15 29.4Z" fill="white"/>
<path d="M15.4195 9.93498L15.4386 9.90743C15.6011 9.66795 15.5331 9.49108 15.4245 9.39561L13.7206 8.33627C13.6601 8.29519 13.6106 8.23988 13.5764 8.17521C13.5422 8.11053 13.5245 8.03846 13.5246 7.96531C13.5246 7.72051 13.6696 7.53582 13.9989 7.44409C15.0498 7.15296 18.7456 7.00051 20.0012 7.00051C20.437 7.00051 21.1876 6.99863 21.8607 7.0171L21.8316 6.9883C19.9902 5.40211 17.6005 4.44482 14.9878 4.44482C9.16458 4.44482 4.44482 9.20309 4.44482 15.0736C4.44482 17.6543 5.35672 20.0197 6.87404 21.8607C8.19822 19.9414 11.4676 15.2076 12.1845 14.2412C13.0103 13.1271 14.8923 10.6487 15.2113 10.2286L15.227 10.2095L15.4195 9.93529V9.93498ZM8.30903 23.353C10.1851 24.7857 12.4813 25.5598 14.8419 25.5552C20.7591 25.5552 25.5552 20.8001 25.5552 14.9337C25.5579 13.2192 25.1406 11.5301 24.3397 10.0142L24.3403 10.0151C24.7094 9.66263 25.1345 9.10479 24.8546 8.40608C24.7679 8.19822 24.3516 7.72615 24.2442 7.61157L24.2589 7.65195C24.5197 8.43237 24.0038 8.92103 23.6331 9.2538C23.43 9.43661 20.7099 11.9795 17.5194 14.7455C14.7076 17.1829 11.5622 19.6634 9.74058 21.0158C7.17769 22.9181 6.6787 23.1946 6.6787 23.1946C6.59672 23.2357 6.5068 23.2587 6.41512 23.2619C6.2586 23.2619 6.12274 23.1917 6.03696 23.0816L6.03415 23.0765L6.0282 23.1582C6.30274 23.599 6.75853 24.1108 7.02368 24.1108C7.10695 24.1108 7.21995 24.0795 7.28788 24.0442C7.28788 24.0442 7.48855 23.9327 8.30903 23.3523" fill="#E2001A"/>
<path d="M15.1577 9.4535C15.3186 9.21558 15.2513 9.03809 15.1437 8.94324L13.4535 7.88765C13.3933 7.84638 13.3442 7.79099 13.3103 7.72632C13.2765 7.66165 13.259 7.58968 13.2594 7.5167C13.2594 7.27377 13.4028 7.08971 13.7296 6.99704C14.7724 6.70717 18.4362 6.55565 19.6815 6.55565C20.2694 6.55565 21.4333 6.55096 22.1997 6.60261C23.059 6.6599 23.7117 6.8399 23.8738 7.26188C24.1912 8.08769 23.6653 8.59732 23.2916 8.94042C23.0931 9.12355 20.4388 11.6605 17.3265 14.4193C14.5817 16.851 11.5124 19.3266 9.73489 20.6761C7.23368 22.5731 6.74783 22.8486 6.74783 22.8486C6.66807 22.8895 6.58037 22.9124 6.49082 22.9159C6.231 22.9159 6.02783 22.715 6.02783 22.452C6.02783 22.3518 6.05757 22.2585 6.10922 22.1828C6.10922 22.1828 11.0346 14.9909 11.9306 13.7751C12.8265 12.5592 14.9781 9.71489 14.9781 9.71489C14.9781 9.71489 15.0031 9.68202 15.1574 9.45318" fill="white"/>
</svg>