<svg width="38" height="40" viewBox="0 0 38 40" fill="none" xmlns="http://www.w3.org/2000/svg">
<path d="M36.5281 38.6517H35.4045V3.37078C35.4045 2.99836 35.1026 2.69664 34.7304 2.69664H22.1461C21.7737 2.69664 21.4719 2.99836 21.4719 3.37078V6.29211H20.1237V3.37078C20.1237 2.99836 19.8218 2.69664 19.4495 2.69664H16.5281V0.674141C16.5281 0.301719 16.2262 0 15.854 0C15.4817 0 15.1798 0.301719 15.1798 0.674141V2.69664H12.2585C11.8862 2.69664 11.5844 2.99836 11.5844 3.37078V6.29211H9.56186C9.18952 6.29211 8.88772 6.59383 8.88772 6.96625V12.5842H3.26975C2.89741 12.5842 2.59561 12.8859 2.59561 13.2584V38.6516H1.47186C1.09952 38.6516 0.797722 38.9534 0.797722 39.3258C0.797722 39.6982 1.0996 40 1.47186 40H36.5281C36.9005 40 37.2023 39.6983 37.2023 39.3259C37.2023 38.9534 36.9004 38.6517 36.5281 38.6517ZM12.9326 4.04492H18.7752V6.29211H12.9326V4.04492ZM10.6854 38.6517H10.2359V37.5281C10.2359 37.1557 9.93405 36.854 9.56178 36.854C9.18952 36.854 8.88764 37.1557 8.88764 37.5281V38.6517H8.43819V36.4045H10.6854V38.6517ZM15.1798 21.3483V22.508V38.6517H12.0337V35.7304C12.0337 35.358 11.7318 35.0563 11.3595 35.0563H7.76405C7.39171 35.0563 7.08991 35.358 7.08991 35.7304V38.6517H3.94382V13.9326H15.1798V21.3483ZM15.8539 12.5843H10.2359V7.64047H21.4719V20.6741H16.5281V18.427H18.5506C18.923 18.427 19.2248 18.1252 19.2248 17.7528C19.2248 17.3804 18.9229 17.0787 18.5506 17.0787H16.5281V14.8315H18.5506C18.923 14.8315 19.2248 14.5298 19.2248 14.1573C19.2248 13.7849 18.9229 13.4832 18.5506 13.4832H16.5281V13.2585C16.5281 12.886 16.2262 12.5843 15.8539 12.5843ZM27.7641 38.6517H16.5281V22.508V22.0225H27.7641V38.6517ZM34.0562 38.6517H29.1123V21.3483V20.4494C29.1123 20.077 28.8105 19.7752 28.4382 19.7752C28.0659 19.7752 27.7641 20.077 27.7641 20.4494V20.6741H26.4158V20.4494C26.4158 20.077 26.1139 19.7752 25.7416 19.7752C25.3694 19.7752 25.0675 20.077 25.0675 20.4494V20.6741H22.8203V6.96633V4.04492H34.0562V38.6517H34.0562Z"/>
<path d="M19.4494 37.3036C19.8218 37.3036 20.1236 37.0017 20.1236 36.6295V24.0452C20.1236 23.6728 19.8217 23.3711 19.4494 23.3711C19.0771 23.3711 18.7753 23.6728 18.7753 24.0452V36.6295C18.7753 37.0018 19.0771 37.3036 19.4494 37.3036Z"/>
<path d="M22.146 37.3036C22.5184 37.3036 22.8202 37.0017 22.8202 36.6295V24.0452C22.8202 23.6728 22.5183 23.3711 22.146 23.3711C21.7738 23.3711 21.4719 23.6728 21.4719 24.0452V36.6295C21.4718 37.0018 21.7737 37.3036 22.146 37.3036Z"/>
<path d="M24.8427 37.3036C25.215 37.3036 25.5168 37.0017 25.5168 36.6295V24.0452C25.5168 23.6728 25.2149 23.3711 24.8427 23.3711C24.4704 23.3711 24.1685 23.6728 24.1685 24.0452V36.6295C24.1685 37.0018 24.4704 37.3036 24.8427 37.3036Z"/>
<path d="M25.7415 8.53935C26.1138 8.53935 26.4156 8.23763 26.4156 7.8652V6.96638C26.4156 6.59395 26.1137 6.29224 25.7415 6.29224C25.3692 6.29224 25.0673 6.59395 25.0673 6.96638V7.86528C25.0673 8.23763 25.3691 8.53935 25.7415 8.53935Z"/>
<path d="M28.4382 8.53935C28.8106 8.53935 29.1124 8.23763 29.1124 7.8652V6.96638C29.1124 6.59395 28.8105 6.29224 28.4382 6.29224C28.066 6.29224 27.7641 6.59395 27.7641 6.96638V7.86528C27.7641 8.23763 28.0659 8.53935 28.4382 8.53935Z"/>
<path d="M31.1348 8.53935C31.5072 8.53935 31.809 8.23763 31.809 7.8652V6.96638C31.809 6.59395 31.5071 6.29224 31.1348 6.29224C30.7626 6.29224 30.4607 6.59395 30.4607 6.96638V7.86528C30.4607 8.23763 30.7625 8.53935 31.1348 8.53935Z"/>
<path d="M25.7415 13.0338C26.1138 13.0338 26.4156 12.7321 26.4156 12.3597V11.4608C26.4156 11.0883 26.1137 10.7866 25.7415 10.7866C25.3692 10.7866 25.0673 11.0883 25.0673 11.4608V12.3597C25.0673 12.7321 25.3691 13.0338 25.7415 13.0338Z"/>
<path d="M28.4382 13.0338C28.8106 13.0338 29.1124 12.7321 29.1124 12.3597V11.4608C29.1124 11.0883 28.8105 10.7866 28.4382 10.7866C28.066 10.7866 27.7641 11.0883 27.7641 11.4608V12.3597C27.7641 12.7321 28.0659 13.0338 28.4382 13.0338Z"/>
<path d="M31.1348 13.0338C31.5072 13.0338 31.809 12.7321 31.809 12.3597V11.4608C31.809 11.0883 31.5071 10.7866 31.1348 10.7866C30.7626 10.7866 30.4607 11.0883 30.4607 11.4608V12.3597C30.4607 12.7321 30.7625 13.0338 31.1348 13.0338Z"/>
<path d="M25.7415 17.5281C26.1138 17.5281 26.4156 17.2264 26.4156 16.8539V15.955C26.4156 15.5826 26.1137 15.2809 25.7415 15.2809C25.3692 15.2809 25.0673 15.5826 25.0673 15.955V16.8539C25.0673 17.2263 25.3691 17.5281 25.7415 17.5281Z"/>
<path d="M28.4382 17.5281C28.8106 17.5281 29.1124 17.2264 29.1124 16.8539V15.955C29.1124 15.5826 28.8105 15.2809 28.4382 15.2809C28.066 15.2809 27.7641 15.5826 27.7641 15.955V16.8539C27.7641 17.2263 28.0659 17.5281 28.4382 17.5281Z"/>
<path d="M31.1348 17.5281C31.5072 17.5281 31.809 17.2264 31.809 16.8539V15.955C31.809 15.5826 31.5071 15.2809 31.1348 15.2809C30.7626 15.2809 30.4607 15.5826 30.4607 15.955V16.8539C30.4607 17.2263 30.7625 17.5281 31.1348 17.5281Z"/>
<path d="M6.86516 19.3258C7.2375 19.3258 7.5393 19.0241 7.5393 18.6517V17.7528C7.5393 17.3803 7.23742 17.0786 6.86516 17.0786C6.49289 17.0786 6.19102 17.3803 6.19102 17.7528V18.6517C6.19102 19.024 6.49289 19.3258 6.86516 19.3258Z"/>
<path d="M9.56177 19.3258C9.93412 19.3258 10.2359 19.0241 10.2359 18.6517V17.7528C10.2359 17.3803 9.93404 17.0786 9.56177 17.0786C9.18951 17.0786 8.88763 17.3803 8.88763 17.7528V18.6517C8.88763 19.024 9.18943 19.3258 9.56177 19.3258Z"/>
<path d="M12.2584 19.3258C12.6307 19.3258 12.9325 19.0241 12.9325 18.6517V17.7528C12.9325 17.3803 12.6307 17.0786 12.2584 17.0786C11.8861 17.0786 11.5843 17.3803 11.5843 17.7528V18.6517C11.5843 19.024 11.886 19.3258 12.2584 19.3258Z"/>
<path d="M6.86516 23.8204C7.2375 23.8204 7.5393 23.5187 7.5393 23.1463V22.2474C7.5393 21.875 7.23742 21.5732 6.86516 21.5732C6.49289 21.5732 6.19102 21.875 6.19102 22.2474V23.1463C6.19102 23.5186 6.49289 23.8204 6.86516 23.8204Z"/>
<path d="M9.56177 23.8204C9.93412 23.8204 10.2359 23.5187 10.2359 23.1463V22.2474C10.2359 21.875 9.93404 21.5732 9.56177 21.5732C9.18951 21.5732 8.88763 21.875 8.88763 22.2474V23.1463C8.88763 23.5186 9.18943 23.8204 9.56177 23.8204Z"/>
<path d="M12.2584 23.8204C12.6307 23.8204 12.9325 23.5187 12.9325 23.1463V22.2474C12.9325 21.875 12.6307 21.5732 12.2584 21.5732C11.8861 21.5732 11.5843 21.875 11.5843 22.2474V23.1463C11.5843 23.5186 11.886 23.8204 12.2584 23.8204Z"/>
<path d="M6.86516 28.3144C7.2375 28.3144 7.5393 28.0127 7.5393 27.6403V26.7414C7.5393 26.369 7.23742 26.0673 6.86516 26.0673C6.49289 26.0673 6.19102 26.369 6.19102 26.7414V27.6403C6.19102 28.0127 6.49289 28.3144 6.86516 28.3144Z"/>
<path d="M9.56177 28.3144C9.93412 28.3144 10.2359 28.0127 10.2359 27.6403V26.7414C10.2359 26.369 9.93404 26.0673 9.56177 26.0673C9.18951 26.0673 8.88763 26.369 8.88763 26.7414V27.6403C8.88763 28.0127 9.18943 28.3144 9.56177 28.3144Z"/>
<path d="M12.2584 28.3144C12.6307 28.3144 12.9325 28.0127 12.9325 27.6403V26.7414C12.9325 26.369 12.6307 26.0673 12.2584 26.0673C11.8861 26.0673 11.5843 26.369 11.5843 26.7414V27.6403C11.5843 28.0127 11.886 28.3144 12.2584 28.3144Z"/>
<path d="M6.86516 32.8091C7.2375 32.8091 7.5393 32.5074 7.5393 32.1349V31.236C7.5393 30.8636 7.23742 30.5619 6.86516 30.5619C6.49289 30.5619 6.19102 30.8636 6.19102 31.236V32.1349C6.19102 32.5074 6.49289 32.8091 6.86516 32.8091Z"/>
<path d="M9.56177 32.8091C9.93412 32.8091 10.2359 32.5074 10.2359 32.1349V31.236C10.2359 30.8636 9.93404 30.5619 9.56177 30.5619C9.18951 30.5619 8.88763 30.8636 8.88763 31.236V32.1349C8.88763 32.5074 9.18943 32.8091 9.56177 32.8091Z"/>
<path d="M12.2584 32.8091C12.6307 32.8091 12.9325 32.5074 12.9325 32.1349V31.236C12.9325 30.8636 12.6307 30.5619 12.2584 30.5619C11.8861 30.5619 11.5843 30.8636 11.5843 31.236V32.1349C11.5843 32.5074 11.886 32.8091 12.2584 32.8091Z"/>
<path d="M31.1348 22.0225C31.5072 22.0225 31.809 21.7207 31.809 21.3483V20.4494C31.809 20.077 31.5071 19.7753 31.1348 19.7753C30.7626 19.7753 30.4607 20.077 30.4607 20.4494V21.3483C30.4607 21.7207 30.7625 22.0225 31.1348 22.0225Z"/>
<path d="M31.1348 26.517C31.5072 26.517 31.809 26.2152 31.809 25.8428V24.9439C31.809 24.5715 31.5071 24.2698 31.1348 24.2698C30.7626 24.2698 30.4607 24.5715 30.4607 24.9439V25.8428C30.4607 26.2152 30.7625 26.517 31.1348 26.517Z"/>
<path d="M31.1348 31.0111C31.5072 31.0111 31.809 30.7094 31.809 30.337V29.4381C31.809 29.0656 31.5071 28.7639 31.1348 28.7639C30.7626 28.7639 30.4607 29.0656 30.4607 29.4381V30.337C30.4607 30.7093 30.7625 31.0111 31.1348 31.0111Z"/>
<path d="M31.1348 35.5056C31.5072 35.5056 31.809 35.2039 31.809 34.8315V33.9326C31.809 33.5601 31.5071 33.2584 31.1348 33.2584C30.7626 33.2584 30.4607 33.5601 30.4607 33.9326V34.8315C30.4607 35.2038 30.7625 35.5056 31.1348 35.5056Z"/>
<path d="M19.2247 10.5617C19.2247 10.1893 18.9228 9.88757 18.5506 9.88757H13.1573C12.7849 9.88757 12.4831 10.1893 12.4831 10.5617C12.4831 10.9341 12.785 11.2359 13.1573 11.2359H18.5506C18.9229 11.2359 19.2247 10.9341 19.2247 10.5617Z"/>
</svg>