<svg width="30" height="30" viewBox="0 0 30 30" fill="none" xmlns="http://www.w3.org/2000/svg">
<path d="M15 0.599976C12.1517 0.599976 9.36741 1.44465 6.99923 3.02717C4.63105 4.60969 2.78537 6.85897 1.69562 9.49052C0.605873 12.1221 0.321006 15.0177 0.877051 17.8112C1.4331 20.6046 2.80508 23.1705 4.81947 25.1841C6.83386 27.1978 9.40018 28.5689 12.1938 29.1239C14.9875 29.679 17.883 29.393 20.5142 28.3024C23.1454 27.2117 25.394 25.3652 26.9756 22.9964C28.5573 20.6277 29.401 17.8431 29.4 14.9948C29.3986 11.1766 27.8809 7.51522 25.1805 4.81581C22.4801 2.11641 18.8182 0.599975 15 0.599976V0.599976ZM11.9518 22.0607C12.1048 22.1462 12.2381 22.263 12.3429 22.4034C12.4478 22.5438 12.5219 22.7047 12.5604 22.8756C12.6396 23.2082 12.584 23.5587 12.4057 23.8504C12.2974 24.0245 12.1449 24.1669 11.9637 24.2629C11.7825 24.3589 11.5791 24.4052 11.3742 24.3971C11.1316 24.3946 10.8925 24.34 10.6728 24.2372L9.99711 23.9174C8.53438 23.1118 7.31909 21.9225 6.48208 20.4775C5.64506 19.0325 5.21804 17.3865 5.24697 15.7169V14.2728C5.2215 12.5993 5.6527 10.9505 6.4942 9.50379C7.3357 8.05706 8.55567 6.86709 10.0229 6.06187L10.6831 5.75241C10.9031 5.65122 11.1423 5.59845 11.3845 5.59768C11.5893 5.59007 11.7925 5.6366 11.9736 5.73259C12.1547 5.82857 12.3073 5.97061 12.416 6.14439C12.5044 6.28785 12.5636 6.44736 12.5901 6.61376C12.6167 6.78016 12.6101 6.95017 12.5708 7.11401C12.533 7.28866 12.4583 7.45317 12.3515 7.59642C12.2447 7.73968 12.1084 7.85834 11.9518 7.94439C11.0972 8.34673 10.3765 8.98685 9.87617 9.78813C9.37583 10.5894 9.117 11.5179 9.13064 12.4624V17.5736C9.12422 18.5127 9.38638 19.434 9.88622 20.229C10.3861 21.024 11.1028 21.6595 11.9518 22.0607ZM24.7324 15.7169C24.7603 17.3876 24.3317 19.0342 23.4928 20.4793C22.6539 21.9244 21.4366 23.1132 19.9719 23.9174L19.2963 24.2372C19.0768 24.3407 18.8374 24.3952 18.5948 24.3971C18.3899 24.4052 18.1865 24.3589 18.0053 24.2629C17.8241 24.1669 17.6716 24.0245 17.5633 23.8504C17.3902 23.5568 17.3349 23.2084 17.4086 22.8756C17.4471 22.7047 17.5212 22.5438 17.6261 22.4034C17.731 22.263 17.8642 22.1462 18.0172 22.0607C18.8739 21.6613 19.5977 21.024 20.1025 20.2248C20.6072 19.4256 20.8716 18.4982 20.8642 17.553V12.4624C20.874 11.5207 20.6128 10.596 20.1117 9.79853C19.6105 9.00111 18.8906 8.36464 18.0378 7.96502C17.8805 7.87851 17.7432 7.75986 17.6348 7.6168C17.5264 7.47374 17.4493 7.30946 17.4086 7.13464C17.3341 6.80355 17.3895 6.4565 17.5633 6.16502C17.6716 5.99087 17.8241 5.84854 18.0053 5.75251C18.1865 5.65647 18.3899 5.61017 18.5948 5.61831C18.8371 5.61843 19.0764 5.67123 19.2963 5.77304L19.9564 6.0825C21.4244 6.88685 22.645 8.07662 23.4866 9.52355C24.3282 10.9705 24.759 12.6197 24.7324 14.2934V15.7169Z" fill="#00B3E1"/>
</svg>