<svg width="30" height="30" viewBox="0 0 30 30" fill="none" xmlns="http://www.w3.org/2000/svg">
<path d="M0.599976 15C0.599976 22.9529 7.04708 29.4 15 29.4C22.9529 29.4 29.4 22.9529 29.4 15C29.4 7.04708 22.9529 0.599976 15 0.599976C7.04708 0.599976 0.599976 7.04708 0.599976 15Z" fill="#FAEB00"/>
<path fill-rule="evenodd" clip-rule="evenodd" d="M14.981 18.0842L21.475 24.6L24.018 22.0466L17.5188 15.5126L18.785 14.248V11.7063L19.6883 10.7999L19.6909 12.9055L20.5748 13.7794L23.7432 10.5882L24.6 11.4385C24.6 10.8912 24.442 9.00215 22.9311 7.52107C21.2416 5.8654 19.5537 6.83149 18.9689 7.41991L15.9075 10.4993L16.6698 11.2662L14.981 12.9563L13.2968 11.2662L14.0602 10.4993L10.996 7.41991C10.4147 6.83149 8.72473 5.8654 7.03089 7.52107C5.52811 9.00215 5.40002 10.8929 5.40002 11.4415L6.22312 10.5882L9.39266 13.7794L10.2766 12.8966V10.7999L11.182 11.7063L11.1791 14.2404L12.4483 15.5135L6.01219 21.9804L8.55237 24.532L14.981 18.0842Z" fill="black"/>
</svg>