<svg width="30" height="29" viewBox="0 0 30 29" fill="none" xmlns="http://www.w3.org/2000/svg">
<path d="M0.606925 13.3696C0.600538 13.143 0.838338 12.9952 1.04119 13.0963C3.3208 14.4155 5.6004 15.6982 7.88001 17.0174C8.35799 17.3106 8.87274 17.787 9.35072 17.787C9.8287 17.787 10.3435 17.3106 10.8214 17.0174C16.4101 13.8292 21.9989 10.641 27.5508 7.45274C27.8082 7.30616 27.9185 7.3428 28.0288 7.59933C32.1095 16.0467 26.6461 26.2416 17.4029 28.0113C15.9169 28.2582 14.4801 28.2548 13.0275 28.048C5.39459 27.1557 0.808715 20.5266 0.606925 13.3696Z" fill="#2B9E2F"/>
<path d="M20.6843 0.599976C20.7266 0.599976 20.768 0.611841 20.8045 0.633261C20.8641 0.66822 20.9253 0.701695 20.9876 0.734228C21.6162 1.06213 21.6251 1.84365 21.0101 2.19627C20.4254 2.53147 19.8458 2.86666 19.2783 3.20186C16.1163 5.03418 12.9175 6.82984 9.75545 8.66216C9.53484 8.80874 9.351 8.80874 9.09363 8.66216C7.45145 7.69347 5.80927 6.75522 4.16709 5.81967C3.84971 5.63887 3.30568 5.47693 3.50068 5.16808C3.51283 5.14883 3.52651 5.12865 3.54169 5.10747C4.31381 4.11802 4.31381 4.11802 5.34331 4.74101C6.59342 5.43728 7.84352 6.17021 9.09363 6.86649C9.27747 6.97643 9.42454 6.97643 9.64514 6.86649C13.1588 4.82365 16.7088 2.81712 20.2228 0.774613C20.2544 0.75624 20.2857 0.74872 20.3214 0.741253C20.4334 0.717898 20.5476 0.599976 20.6619 0.599976C20.6693 0.599976 20.6767 0.599976 20.6843 0.599976Z" fill="#2B9E2F"/>
<path d="M0.873255 11.078C0.882786 11.0305 0.893915 10.9828 0.893915 10.9343C1.07775 9.50511 1.07775 9.50511 2.32786 10.2014C4.5707 11.484 6.77676 12.73 8.98283 14.0492C9.24021 14.1958 9.46082 14.1958 9.71819 14.0492C15.0495 10.971 20.3809 7.92932 25.6754 4.88768C26.0063 4.70445 26.1534 4.70445 26.4108 4.99762C27.1094 5.91377 27.1094 5.91377 26.1534 6.46347C20.675 9.61505 15.1966 12.7666 9.71819 15.9182C9.49758 16.0648 9.31374 16.0648 9.05637 15.9182C6.44586 14.4157 3.79857 12.9132 1.18806 11.4107C1.05369 11.3438 0.827247 11.3074 0.873255 11.078Z" fill="#2B9E2F"/>
<path d="M24.2013 2.80893C24.6596 3.11868 24.5839 3.76858 24.105 4.0455C22.5555 4.94154 21.0271 5.79975 19.4987 6.68328C16.2264 8.55224 12.9908 10.4212 9.71849 12.2902C9.46112 12.4367 9.27728 12.4734 8.98314 12.2902C6.70353 10.9709 4.42393 9.65163 2.10755 8.36901C1.77664 8.18578 1.77664 8.03919 1.92372 7.74602C2.43846 6.71993 2.43846 6.71993 3.39443 7.26962C5.23282 8.33236 7.10798 9.39511 8.94637 10.4578C9.24051 10.6044 9.42435 10.6044 9.68172 10.4578C14.2042 7.85596 18.7266 5.29072 23.2123 2.68884C23.5543 2.4843 23.8009 2.47003 24.0704 2.70503C24.1123 2.74153 24.1553 2.77783 24.2013 2.80893Z" fill="#2B9E2F"/>
</svg>