<svg width="40" height="40" viewBox="0 0 40 40" xmlns="http://www.w3.org/2000/svg">
<path d="M28.6668 37.3333H10.0002C9.63219 37.3333 9.33352 37.6319 9.33352 37.9999V39.3333C9.33352 39.7012 9.63219 39.9999 10.0002 39.9999C10.3681 39.9999 10.6668 39.7012 10.6668 39.3333V38.6666H28.6668C29.0348 38.6666 29.3334 38.3679 29.3334 38C29.3334 37.632 29.0349 37.3333 28.6668 37.3333Z"/>
<path d="M14.6663 16.6665C14.6663 17.0345 14.965 17.3332 15.333 17.3332H17.9997C18.3676 17.3332 18.6663 17.0345 18.6663 16.6665V12.6665C18.6663 12.2985 18.3676 11.9999 17.9997 11.9999H15.333C14.9651 11.9999 14.6664 12.2985 14.6664 12.6665V16.6665H14.6663ZM15.9997 13.3332H17.333V15.9999H15.9997V13.3332Z"/>
<path d="M8.66664 8.00012H0.666641C0.298672 8.00012 0 8.29879 0 8.66676V22.0001C0 22.3681 0.298672 22.6668 0.666641 22.6668C1.03461 22.6668 1.33328 22.3681 1.33328 22.0001V9.33348H8.66664C9.03461 9.33348 9.33328 9.03481 9.33328 8.66684C9.33328 8.29887 9.03469 8.00012 8.66664 8.00012Z"/>
<path d="M32.0003 32.6668C32.0003 33.0347 32.299 33.3334 32.667 33.3334H35.3336C35.7016 33.3334 36.0002 33.0347 36.0002 32.6668V28.6668C36.0002 28.2988 35.7016 28.0001 35.3336 28.0001H32.667C32.299 28.0001 32.0003 28.2988 32.0003 28.6668V32.6668ZM33.3337 29.3335H34.667V32.0001H33.3337V29.3335Z"/>
<path d="M3.33336 23.9999C0.0379688 23.9999 0 32.5799 0 32.6665C0 34.2765 1.14734 35.6225 2.66664 35.9325V39.3332C2.66664 39.7012 2.96531 39.9999 3.33328 39.9999C3.70125 39.9999 3.99992 39.7012 3.99992 39.3332V35.9325C5.51922 35.6225 6.66656 34.2765 6.66656 32.6665C6.66664 32.5799 6.62867 23.9999 3.33336 23.9999ZM3.33336 34.6665C2.2307 34.6665 1.33336 33.7692 1.33336 32.6665C1.33336 29.3452 2.22539 25.3332 3.33336 25.3332C4.44133 25.3332 5.33336 29.3452 5.33336 32.6665C5.33336 33.7692 4.43602 34.6665 3.33336 34.6665Z"/>
<path d="M7.3332 20H4.66648C4.29851 20 3.99984 20.2987 3.99984 20.6666V22C3.99984 22.368 4.29851 22.6666 4.66648 22.6666C5.03445 22.6666 5.33312 22.368 5.33312 22V21.3334H6.66648V24.6667C6.66648 25.0347 6.96515 25.3334 7.33312 25.3334C7.70109 25.3334 7.99976 25.0347 7.99976 24.6667V20.6667C7.99984 20.2987 7.70117 20 7.3332 20Z"/>
<path d="M32.667 17.3333H35.3336C35.7016 17.3333 36.0002 17.0346 36.0002 16.6666V12.6666C36.0002 12.2987 35.7016 12 35.3336 12H32.667C32.299 12 32.0003 12.2987 32.0003 12.6666V16.6666C32.0003 17.0346 32.299 17.3333 32.667 17.3333ZM33.3337 13.3333H34.667V15.9999H33.3337V13.3333Z"/>
<path d="M7.3332 11.9999H4.66648C4.29851 11.9999 3.99984 12.2985 3.99984 12.6665V16.6665C3.99984 17.0345 4.29851 17.3332 4.66648 17.3332H7.33312C7.70109 17.3332 7.99976 17.0345 7.99976 16.6665V12.6665C7.99984 12.2985 7.70117 11.9999 7.3332 11.9999ZM6.66648 15.9999H5.3332V13.3332H6.66656V15.9999H6.66648Z"/>
<path d="M21.333 16.6665C21.333 17.0345 21.6317 17.3332 21.9997 17.3332H24.6663C25.0343 17.3332 25.333 17.0345 25.333 16.6665V12.6665C25.333 12.2985 25.0343 11.9999 24.6663 11.9999H21.9997C21.6317 11.9999 21.333 12.2985 21.333 12.6665V16.6665ZM22.6663 13.3332H23.9997V15.9999H22.6663V13.3332Z"/>
<path d="M39.3332 8.00012H31.3332C30.9653 8.00012 30.6666 8.29879 30.6666 8.66676C30.6666 9.03473 30.9653 9.3334 31.3332 9.3334H38.6666V36.1228C38.4573 36.0481 38.2353 36.0001 37.9999 36.0001C37.8846 36.0001 37.7699 36.0101 37.6573 36.0301C37.1973 35.2015 36.322 34.6668 35.3333 34.6668C34.3446 34.6668 33.4693 35.2015 33.0093 36.0301C32.8967 36.0101 32.782 36.0001 32.6667 36.0001C31.564 36.0001 30.6667 36.8975 30.6667 38.0001C30.6667 39.1028 31.564 40.0001 32.6667 40.0001H37.9999C39.1025 40.0001 39.9999 39.1028 39.9999 38.0001V8.66676C39.9999 8.29879 39.7012 8.00012 39.3332 8.00012ZM37.9999 38.6668H32.6665C32.2992 38.6668 31.9999 38.3675 31.9999 38.0001C31.9999 37.6328 32.2992 37.3335 32.6665 37.3335C32.7945 37.3335 32.9158 37.3701 33.0278 37.4422C33.2105 37.5595 33.4385 37.5808 33.6399 37.4995C33.8412 37.4182 33.9899 37.2435 34.0385 37.0322C34.1792 36.4248 34.7119 36.0001 35.3332 36.0001C35.9546 36.0001 36.4872 36.4248 36.6279 37.0322C36.6766 37.2435 36.8253 37.4182 37.0266 37.4995C37.2273 37.5808 37.4559 37.5595 37.6386 37.4422C38.0726 37.1622 38.6666 37.5048 38.6666 38.0001C38.6665 38.3675 38.3672 38.6668 37.9999 38.6668Z"/>
<path d="M21.9997 9.33328H24.6663C25.0343 9.33328 25.333 9.03461 25.333 8.66664V4.66664C25.333 4.29867 25.0343 4 24.6663 4H21.9997C21.6317 4 21.333 4.29867 21.333 4.66664V8.66664C21.333 9.03461 21.6317 9.33328 21.9997 9.33328ZM22.6663 5.33328H23.9997V7.99992H22.6663V5.33328Z"/>
<path d="M21.333 24.6666C21.333 25.0346 21.6317 25.3333 21.9997 25.3333H24.6663C25.0343 25.3333 25.333 25.0346 25.333 24.6666V20.6666C25.333 20.2987 25.0343 20 24.6663 20H21.9997C21.6317 20 21.333 20.2987 21.333 20.6666V24.6666ZM22.6663 21.3334H23.9997V24H22.6663V21.3334Z"/>
<path d="M15.3331 9.33328H17.9997C18.3677 9.33328 18.6663 9.03461 18.6663 8.66664V4.66664C18.6663 4.29867 18.3677 4 17.9997 4H15.3331C14.9651 4 14.6664 4.29867 14.6664 4.66664V8.66664C14.6663 9.03461 14.965 9.33328 15.3331 9.33328ZM15.9997 5.33328H17.3331V7.99992H15.9997V5.33328Z"/>
<path d="M19.5268 32.1933C19.4068 32.32 19.3334 32.4933 19.3334 32.6667C19.3334 32.8401 19.4068 33.0133 19.5268 33.1401C19.6534 33.2601 19.8268 33.3334 20.0001 33.3334C20.1735 33.3334 20.3468 33.2601 20.4735 33.1401C20.5935 33.0134 20.6669 32.8401 20.6669 32.6667C20.6669 32.4933 20.5935 32.3201 20.4735 32.1933C20.2201 31.9466 19.7801 31.9466 19.5268 32.1933Z"/>
<path d="M14.6663 24.6666C14.6663 25.0346 14.965 25.3333 15.333 25.3333H17.9997C18.3676 25.3333 18.6663 25.0346 18.6663 24.6666V20.6666C18.6663 20.2987 18.3676 20 17.9997 20H15.333C14.9651 20 14.6664 20.2987 14.6664 20.6666V24.6666H14.6663ZM15.9997 21.3334H17.333V24H15.9997V21.3334Z"/>
<path d="M13.3334 28.6668C13.3334 29.0347 13.6321 29.3334 14 29.3334H16V35.3334C16 35.7014 16.2987 36 16.6667 36C17.0346 36 17.3333 35.7014 17.3333 35.3334V29.3334H22.6667V35.3334C22.6667 35.7014 22.9653 36 23.3333 36C23.7013 36 23.9999 35.7014 23.9999 35.3334V29.3334H26C26.3679 29.3334 26.6666 29.0347 26.6666 28.6668C26.6666 28.2988 26.3679 28.0001 26 28.0001H14C13.6321 28.0001 13.3334 28.2988 13.3334 28.6668Z"/>
<path d="M32.0003 24.6666C32.0003 25.0346 32.299 25.3333 32.667 25.3333H35.3336C35.7016 25.3333 36.0002 25.0346 36.0002 24.6666V20.6666C36.0002 20.2987 35.7016 20 35.3336 20H32.667C32.299 20 32.0003 20.2987 32.0003 20.6666V24.6666ZM33.3337 21.3334H34.667V24H33.3337V21.3334Z"/>
<path d="M28.6665 0H11.3332C10.9653 0 10.6666 0.298672 10.6666 0.666641V35.3333C10.6666 35.7012 10.9653 35.9999 11.3332 35.9999C11.7012 35.9999 11.9999 35.7012 11.9999 35.3333V1.33328H27.9999V35.3333C27.9999 35.7012 28.2985 35.9999 28.6665 35.9999C29.0345 35.9999 29.3331 35.7012 29.3331 35.3333V0.666641C29.3332 0.298672 29.0346 0 28.6665 0Z"/>
</svg>